<svg xmlns="http://www.w3.org/2000/svg" xmlns:xlink="http://www.w3.org/1999/xlink" width="1328pt" height="255pt" viewBox="0.00 0.00 1328.00 255.00">
<g id="graph0" class="graph" transform="scale(1 1) rotate(0) translate(4 251)">
<title>StateMachine</title>
<polygon fill="white" stroke="none" points="-4,4 -4,-251 1324.16,-251 1324.16,4 -4,4"/>
<g id="clust1" class="cluster">
<title>cluster_State2</title>
<path fill="none" stroke="#888888" d="M216.43,-44C216.43,-44 957.73,-44 957.73,-44 963.73,-44 969.73,-50 969.73,-56 969.73,-56 969.73,-145 969.73,-145 969.73,-151 963.73,-157 957.73,-157 957.73,-157 216.43,-157 216.43,-157 210.43,-157 204.43,-151 204.43,-145 204.43,-145 204.43,-56 204.43,-56 204.43,-50 210.43,-44 216.43,-44"/>
<text xml:space="preserve" text-anchor="middle" x="587.08" y="-142.2" font-family="Times,serif" font-size="12.00">State2</text>
</g>
<g id="clust2" class="cluster">
<title>cluster_State2_Sub2</title>
<path fill="none" stroke="#888888" d="M552.25,-165C552.25,-165 1300.16,-165 1300.16,-165 1306.16,-165 1312.16,-171 1312.16,-177 1312.16,-177 1312.16,-227 1312.16,-227 1312.16,-233 1306.16,-239 1300.16,-239 1300.16,-239 552.25,-239 552.25,-239 546.25,-239 540.25,-233 540.25,-227 540.25,-227 540.25,-177 540.25,-177 540.25,-171 546.25,-165 552.25,-165"/>
<text xml:space="preserve" text-anchor="middle" x="926.2" y="-224.2" font-family="Times,serif" font-size="12.00">State2_Sub2</text>
</g>
<!-- State2 -->
<g id="node1" class="node">
<title>State2</title>
<path fill="none" stroke="black" d="M254.43,-88C254.43,-88 224.43,-88 224.43,-88 218.43,-88 212.43,-82 212.43,-76 212.43,-76 212.43,-64 212.43,-64 212.43,-58 218.43,-52 224.43,-52 224.43,-52 254.43,-52 254.43,-52 260.43,-52 266.43,-58 266.43,-64 266.43,-64 266.43,-76 266.43,-76 266.43,-82 260.43,-88 254.43,-88"/>
<text xml:space="preserve" text-anchor="middle" x="239.43" y="-65.8" font-family="Times,serif" font-size="14.00">State2</text>
</g>
<!-- State2_Sub1 -->
<g id="node2" class="node">
<title>State2_Sub1</title>
<path fill="none" stroke="black" d="M421.53,-127C421.53,-127 358.75,-127 358.75,-127 352.75,-127 346.75,-121 346.75,-115 346.75,-115 346.75,-103 346.75,-103 346.75,-97 352.75,-91 358.75,-91 358.75,-91 421.53,-91 421.53,-91 427.53,-91 433.53,-97 433.53,-103 433.53,-103 433.53,-115 433.53,-115 433.53,-121 427.53,-127 421.53,-127"/>
<text xml:space="preserve" text-anchor="middle" x="390.14" y="-104.8" font-family="Times,serif" font-size="14.00">State2_Sub1</text>
</g>
<!-- State2&#45;&gt;State2_Sub1 -->
<g id="edge3" class="edge">
<title>State2-&gt;State2_Sub1</title>
<path fill="none" stroke="Green" d="M266.84,-75.48C284.46,-79.28 308.1,-84.63 328.75,-90.2 330.99,-90.8 333.27,-91.43 335.56,-92.08"/>
<polygon fill="Green" stroke="Green" points="334.34,-95.37 344.92,-94.82 336.3,-88.65 334.34,-95.37"/>
<text xml:space="preserve" text-anchor="middle" x="306.59" y="-94.4" font-family="Times,serif" font-size="14.00">initial</text>
</g>
<!-- State3 -->
<g id="node13" class="node">
<title>State3</title>
<path fill="none" stroke="black" d="M405.14,-36C405.14,-36 375.14,-36 375.14,-36 369.14,-36 363.14,-30 363.14,-24 363.14,-24 363.14,-12 363.14,-12 363.14,-6 369.14,0 375.14,0 375.14,0 405.14,0 405.14,0 411.14,0 417.14,-6 417.14,-12 417.14,-12 417.14,-24 417.14,-24 417.14,-30 411.14,-36 405.14,-36"/>
<text xml:space="preserve" text-anchor="middle" x="390.14" y="-13.8" font-family="Times,serif" font-size="14.00">State3</text>
</g>
<!-- State2&#45;&gt;State3 -->
<g id="edge6" class="edge">
<title>State2-&gt;State3</title>
<path fill="none" stroke="Blue" d="M266.67,-60.82C290.31,-52.56 325.32,-40.32 351.86,-31.04"/>
<polygon fill="Blue" stroke="Blue" points="352.95,-34.36 361.23,-27.76 350.64,-27.76 352.95,-34.36"/>
<text xml:space="preserve" text-anchor="middle" x="306.59" y="-57.38" font-family="Times,serif" font-size="14.00">Success</text>
</g>
<!-- State2_Sub2 -->
<g id="node3" class="node">
<title>State2_Sub2</title>
<path fill="none" stroke="black" d="M588.63,-127C588.63,-127 525.86,-127 525.86,-127 519.86,-127 513.86,-121 513.86,-115 513.86,-115 513.86,-103 513.86,-103 513.86,-97 519.86,-91 525.86,-91 525.86,-91 588.63,-91 588.63,-91 594.63,-91 600.63,-97 600.63,-103 600.63,-103 600.63,-115 600.63,-115 600.63,-121 594.63,-127 588.63,-127"/>
<text xml:space="preserve" text-anchor="middle" x="557.25" y="-104.8" font-family="Times,serif" font-size="14.00">State2_Sub2</text>
</g>
<!-- State2_Sub1&#45;&gt;State2_Sub2 -->
<g id="edge7" class="edge">
<title>State2_Sub1-&gt;State2_Sub2</title>
<path fill="none" stroke="Blue" d="M433.66,-109C454.57,-109 480,-109 502.27,-109"/>
<polygon fill="Blue" stroke="Blue" points="502.07,-112.5 512.07,-109 502.07,-105.5 502.07,-112.5"/>
<text xml:space="preserve" text-anchor="middle" x="473.69" y="-113.2" font-family="Times,serif" font-size="14.00">Success</text>
</g>
<!-- State2_Sub3 -->
<g id="node4" class="node">
<title>State2_Sub3</title>
<path fill="none" stroke="black" d="M773.63,-127C773.63,-127 710.85,-127 710.85,-127 704.85,-127 698.85,-121 698.85,-115 698.85,-115 698.85,-103 698.85,-103 698.85,-97 704.85,-91 710.85,-91 710.85,-91 773.63,-91 773.63,-91 779.63,-91 785.63,-97 785.63,-103 785.63,-103 785.63,-115 785.63,-115 785.63,-121 779.63,-127 773.63,-127"/>
<text xml:space="preserve" text-anchor="middle" x="742.24" y="-104.8" font-family="Times,serif" font-size="14.00">State2_Sub3</text>
</g>
<!-- State2_Sub2&#45;&gt;State2_Sub3 -->
<g id="edge8" class="edge">
<title>State2_Sub2-&gt;State2_Sub3</title>
<path fill="none" stroke="Blue" d="M600.69,-109C626.37,-109 659.38,-109 686.95,-109"/>
<polygon fill="Blue" stroke="Blue" points="686.88,-112.5 696.88,-109 686.88,-105.5 686.88,-112.5"/>
<text xml:space="preserve" text-anchor="middle" x="640.8" y="-113.2" font-family="Times,serif" font-size="14.00">Success</text>
</g>
<!-- State2_Sub2_Sub1 -->
<g id="node7" class="node">
<title>State2_Sub2_Sub1</title>
<path fill="none" stroke="black" d="M791.52,-209C791.52,-209 692.96,-209 692.96,-209 686.96,-209 680.96,-203 680.96,-197 680.96,-197 680.96,-185 680.96,-185 680.96,-179 686.96,-173 692.96,-173 692.96,-173 791.52,-173 791.52,-173 797.52,-173 803.52,-179 803.52,-185 803.52,-185 803.52,-197 803.52,-197 803.52,-203 797.52,-209 791.52,-209"/>
<text xml:space="preserve" text-anchor="middle" x="742.24" y="-186.8" font-family="Times,serif" font-size="14.00">State2_Sub2_Sub1</text>
</g>
<!-- State2_Sub2&#45;&gt;State2_Sub2_Sub1 -->
<g id="edge4" class="edge">
<title>State2_Sub2-&gt;State2_Sub2_Sub1</title>
<path fill="none" stroke="Green" d="M599.31,-127.4C626.06,-139.39 661.17,-155.12 689.78,-167.94"/>
<polygon fill="Green" stroke="Green" points="688.06,-171 698.61,-171.9 690.92,-164.62 688.06,-171"/>
<text xml:space="preserve" text-anchor="middle" x="640.8" y="-159.11" font-family="Times,serif" font-size="14.00">initial</text>
</g>
<!-- final_State2 -->
<g id="node6" class="node">
<title>final_State2</title>
<ellipse fill="black" stroke="black" cx="945.13" cy="-109" rx="12.6" ry="12.6"/>
<ellipse fill="none" stroke="black" cx="945.13" cy="-109" rx="16.6" ry="16.6"/>
</g>
<!-- State2_Sub3&#45;&gt;final_State2 -->
<g id="edge11" class="edge">
<title>State2_Sub3-&gt;final_State2</title>
<path fill="none" stroke="black" d="M785.85,-109C825.44,-109 883.23,-109 916.92,-109"/>
<polygon fill="black" stroke="black" points="916.65,-112.5 926.65,-109 916.65,-105.5 916.65,-112.5"/>
<text xml:space="preserve" text-anchor="middle" x="843.69" y="-113.2" font-family="Times,serif" font-size="14.00">final</text>
</g>
<!-- start_State2 -->
<g id="node5" class="node">
<title>start_State2</title>
<ellipse fill="black" stroke="black" cx="239.43" cy="-115" rx="9" ry="9"/>
</g>
<!-- start_State2&#45;&gt;State2_Sub1 -->
<g id="edge1" class="edge">
<title>start_State2-&gt;State2_Sub1</title>
<path fill="none" stroke="black" d="M248.85,-114.66C265.34,-113.99 303.08,-112.47 335.27,-111.17"/>
<polygon fill="black" stroke="black" points="335.02,-114.69 344.87,-110.79 334.74,-107.69 335.02,-114.69"/>
<text xml:space="preserve" text-anchor="middle" x="306.59" y="-117.26" font-family="Times,serif" font-size="14.00">start</text>
</g>
<!-- State2_Sub2_Sub2 -->
<g id="node8" class="node">
<title>State2_Sub2_Sub2</title>
<path fill="none" stroke="black" d="M994.41,-209C994.41,-209 895.85,-209 895.85,-209 889.85,-209 883.85,-203 883.85,-197 883.85,-197 883.85,-185 883.85,-185 883.85,-179 889.85,-173 895.85,-173 895.85,-173 994.41,-173 994.41,-173 1000.41,-173 1006.41,-179 1006.41,-185 1006.41,-185 1006.41,-197 1006.41,-197 1006.41,-203 1000.41,-209 994.41,-209"/>
<text xml:space="preserve" text-anchor="middle" x="945.13" y="-186.8" font-family="Times,serif" font-size="14.00">State2_Sub2_Sub2</text>
</g>
<!-- State2_Sub2_Sub1&#45;&gt;State2_Sub2_Sub2 -->
<g id="edge9" class="edge">
<title>State2_Sub2_Sub1-&gt;State2_Sub2_Sub2</title>
<path fill="none" stroke="Blue" d="M803.79,-191C825.23,-191 849.58,-191 871.9,-191"/>
<polygon fill="Blue" stroke="Blue" points="871.85,-194.5 881.85,-191 871.85,-187.5 871.85,-194.5"/>
<text xml:space="preserve" text-anchor="middle" x="843.69" y="-195.2" font-family="Times,serif" font-size="14.00">Success</text>
</g>
<!-- State2_Sub2_Sub3 -->
<g id="node9" class="node">
<title>State2_Sub2_Sub3</title>
<path fill="none" stroke="black" d="M1197.3,-209C1197.3,-209 1098.74,-209 1098.74,-209 1092.74,-209 1086.74,-203 1086.74,-197 1086.74,-197 1086.74,-185 1086.74,-185 1086.74,-179 1092.74,-173 1098.74,-173 1098.74,-173 1197.3,-173 1197.3,-173 1203.3,-173 1209.3,-179 1209.3,-185 1209.3,-185 1209.3,-197 1209.3,-197 1209.3,-203 1203.3,-209 1197.3,-209"/>
<text xml:space="preserve" text-anchor="middle" x="1148.02" y="-186.8" font-family="Times,serif" font-size="14.00">State2_Sub2_Sub3</text>
</g>
<!-- State2_Sub2_Sub2&#45;&gt;State2_Sub2_Sub3 -->
<g id="edge10" class="edge">
<title>State2_Sub2_Sub2-&gt;State2_Sub2_Sub3</title>
<path fill="none" stroke="Blue" d="M1006.68,-191C1028.12,-191 1052.47,-191 1074.79,-191"/>
<polygon fill="Blue" stroke="Blue" points="1074.74,-194.5 1084.74,-191 1074.74,-187.5 1074.74,-194.5"/>
<text xml:space="preserve" text-anchor="middle" x="1046.58" y="-195.2" font-family="Times,serif" font-size="14.00">Success</text>
</g>
<!-- final_State2_Sub2 -->
<g id="node11" class="node">
<title>final_State2_Sub2</title>
<ellipse fill="black" stroke="black" cx="1287.56" cy="-191" rx="12.6" ry="12.6"/>
<ellipse fill="none" stroke="black" cx="1287.56" cy="-191" rx="16.6" ry="16.6"/>
</g>
<!-- State2_Sub2_Sub3&#45;&gt;final_State2_Sub2 -->
<g id="edge12" class="edge">
<title>State2_Sub2_Sub3-&gt;final_State2_Sub2</title>
<path fill="none" stroke="black" d="M1209.75,-191C1227,-191 1244.94,-191 1259.14,-191"/>
<polygon fill="black" stroke="black" points="1259.03,-194.5 1269.03,-191 1259.03,-187.5 1259.03,-194.5"/>
<text xml:space="preserve" text-anchor="middle" x="1240.13" y="-195.2" font-family="Times,serif" font-size="14.00">final</text>
</g>
<!-- start_State2_Sub2 -->
<g id="node10" class="node">
<title>start_State2_Sub2</title>
<ellipse fill="black" stroke="black" cx="557.25" cy="-191" rx="9" ry="9"/>
</g>
<!-- start_State2_Sub2&#45;&gt;State2_Sub2_Sub1 -->
<g id="edge2" class="edge">
<title>start_State2_Sub2-&gt;State2_Sub2_Sub1</title>
<path fill="none" stroke="black" d="M566.58,-191C584.82,-191 629.82,-191 669.57,-191"/>
<polygon fill="black" stroke="black" points="669.37,-194.5 679.37,-191 669.37,-187.5 669.37,-194.5"/>
<text xml:space="preserve" text-anchor="middle" x="640.8" y="-195.2" font-family="Times,serif" font-size="14.00">start</text>
</g>
<!-- State1 -->
<g id="node12" class="node">
<title>State1</title>
<path fill="none" stroke="black" d="M120.1,-88C120.1,-88 90.1,-88 90.1,-88 84.1,-88 78.1,-82 78.1,-76 78.1,-76 78.1,-64 78.1,-64 78.1,-58 84.1,-52 90.1,-52 90.1,-52 120.1,-52 120.1,-52 126.1,-52 132.1,-58 132.1,-64 132.1,-64 132.1,-76 132.1,-76 132.1,-82 126.1,-88 120.1,-88"/>
<text xml:space="preserve" text-anchor="middle" x="105.1" y="-65.8" font-family="Times,serif" font-size="14.00">State1</text>
</g>
<!-- State1&#45;&gt;State2 -->
<g id="edge5" class="edge">
<title>State1-&gt;State2</title>
<path fill="none" stroke="Blue" d="M132.56,-70C152.04,-70 178.79,-70 200.53,-70"/>
<polygon fill="Blue" stroke="Blue" points="200.5,-73.5 210.5,-70 200.5,-66.5 200.5,-73.5"/>
<text xml:space="preserve" text-anchor="middle" x="172.27" y="-74.2" font-family="Times,serif" font-size="14.00">Success</text>
</g>
<!-- final_global -->
<g id="node15" class="node">
<title>final_global</title>
<ellipse fill="black" stroke="black" cx="557.25" cy="-18" rx="12.6" ry="12.6"/>
<ellipse fill="none" stroke="black" cx="557.25" cy="-18" rx="16.6" ry="16.6"/>
</g>
<!-- State3&#45;&gt;final_global -->
<g id="edge14" class="edge">
<title>State3-&gt;final_global</title>
<path fill="none" stroke="black" d="M417.3,-18C447.81,-18 497.99,-18 528.96,-18"/>
<polygon fill="black" stroke="black" points="528.68,-21.5 538.68,-18 528.68,-14.5 528.68,-21.5"/>
<text xml:space="preserve" text-anchor="middle" x="473.69" y="-22.2" font-family="Times,serif" font-size="14.00">final</text>
</g>
<!-- start_global -->
<g id="node14" class="node">
<title>start_global</title>
<ellipse fill="black" stroke="black" cx="9" cy="-70" rx="9" ry="9"/>
</g>
<!-- start_global&#45;&gt;State1 -->
<g id="edge13" class="edge">
<title>start_global-&gt;State1</title>
<path fill="none" stroke="black" d="M18.35,-70C29.2,-70 48.85,-70 66.61,-70"/>
<polygon fill="black" stroke="black" points="66.38,-73.5 76.38,-70 66.38,-66.5 66.38,-73.5"/>
<text xml:space="preserve" text-anchor="middle" x="48.05" y="-74.2" font-family="Times,serif" font-size="14.00">start</text>
</g>
</g>
</svg>